<svg xmlns="http://www.w3.org/2000/svg" viewBox="0 0 128 128" role="img" aria-labelledby="title desc">
  <title id="title">Bus logo</title>
  <desc id="desc">Simple bus icon on a blue background</desc>
  <rect width="128" height="128" rx="18" fill="#1f6feb" />
  <g transform="translate(14 26)">
    <rect x="10" y="18" width="82" height="42" rx="10" fill="#f4d7a8" />
    <rect x="16" y="24" width="70" height="26" rx="7" fill="#39424e" />
    <rect x="22" y="28" width="16" height="18" rx="2" fill="#b9def4" />
    <rect x="42" y="28" width="14" height="24" fill="#a6d4ef" />
    <rect x="60" y="28" width="18" height="16" rx="1.5" fill="#9bcbe8" />
    <rect x="10" y="50" width="82" height="10" rx="4" fill="#f7b500" />
    <rect x="10" y="56" width="82" height="4" fill="#ff6b2c" />
    <rect x="8" y="44" width="6" height="12" rx="2" fill="#ffffff" />
    <rect x="87" y="42" width="5" height="14" rx="2" fill="#6e7b87" />
    <rect x="90" y="42" width="4" height="14" rx="2" fill="#f44336" />
    <rect x="58" y="8" width="18" height="10" rx="3" fill="#b79b69" />
    <rect x="24" y="40" width="7" height="14" rx="2" fill="#6e625f" />
    <circle cx="28" cy="64" r="11" fill="#5b4c46" />
    <circle cx="28" cy="64" r="6" fill="#c9c9c9" />
    <circle cx="74" cy="64" r="11" fill="#5b4c46" />
    <circle cx="74" cy="64" r="6" fill="#c9c9c9" />
  </g>
</svg>
